<?xml version="1.0" encoding="UTF-8"?>
<!-- Generated by Pixelmator Pro 2.4.4 -->
<svg width="300" height="100" viewBox="0 0 300 100" xmlns="http://www.w3.org/2000/svg" xmlns:xlink="http://www.w3.org/1999/xlink">
    <path id="logo" fill="#000000" fill-rule="evenodd" stroke="none" d="M 36.951172 95.669922 C 34.029755 95.664696 31.678139 95.441261 30.859375 95.289063 C 21.899601 93.62336 14.858679 89.030701 9.738281 81.511719 C 4.618068 73.993034 2.923725 65.759583 4.65625 56.8125 L 4.695313 56.613281 L 6.128906 50.595703 L 15.273438 12.037109 L 19.554688 13.078125 C 27.372467 14.979324 32.20697 22.863312 30.351563 30.6875 L 27.605469 42.261719 L 27.621094 42.265625 L 23.226563 60.703125 C 22.554459 64.391815 23.268604 67.777939 25.371094 70.865234 C 27.507092 74.001732 30.456459 75.919945 34.21875 76.619141 C 35.476089 76.852913 42.185349 77.662552 51 73 C 54.758232 71.012054 61.713188 63.071518 65 54 C 67.442276 47.25938 68.151199 33.155769 59 26 C 40.870964 11.82402 19.625343 14.371475 38 9 C 42.399513 7.713882 48.622459 5.554031 53 6 C 64.835541 7.205757 73.187317 15.185326 74 16 C 87.195572 29.227989 84.830353 51.675449 82 61 C 79.717926 68.51825 71.605988 80.202507 68 83 C 58.865982 90.086098 60.559822 89.745178 49 94 C 45.405117 95.323166 40.707283 95.676643 36.951172 95.669922 Z M 131.615234 93.066406 C 128.708359 93.033005 125.291817 92.564514 122.416016 91.681641 C 115.551186 89.574142 113.11541 88.19516 108.115234 83.400391 C 104.389694 79.827896 98.794159 72.985886 97.578125 66.841797 C 95.708267 57.394249 95.762566 42.864231 103.599609 32.970703 C 109.562798 25.442741 118.645241 22.928085 126.71875 23.007813 C 130.697617 23.047104 140.196701 25.128212 140.271484 29.167969 C 140.474564 40.137913 123.208061 32.145561 115.628906 41.488281 C 110.721489 47.537594 109.185806 55.383369 110.373047 61.572266 C 111.600952 67.973061 116.955544 73.315964 120.912109 75.875 C 125.722496 78.986275 130.768829 79.110413 133.542969 78.599609 C 136.248734 78.101395 138.534439 76.443039 140.201172 74.267578 C 142.679077 71.033371 146.529602 61.642796 146.431641 55.041016 C 146.348587 49.443726 138.225021 39.55175 140.271484 37.792969 C 144.718002 33.971535 152.581604 40.71965 156.289063 46.417969 C 158.01532 49.07119 158.167633 55.840446 157.519531 62.433594 C 156.761597 70.144142 154.717422 78.533257 151.96875 82.28125 C 148.090347 87.569717 142.426132 91.004089 136.072266 92.650391 C 134.920853 92.948723 133.35936 93.086449 131.615234 93.066406 Z M 188.291016 93 C 177.366653 92.770836 181.370178 67.162003 176.132813 52.390625 C 173.696594 45.519604 167.681549 37.095634 168.613281 33.484375 C 169.868988 28.617462 175.469849 19.852547 182.605469 22 C 189.754822 24.151588 187.711502 42.437134 194 45 C 204.498718 49.278751 218.479706 26.900963 224.580078 34.527344 C 228.417664 39.324909 226.826263 46.188335 221 51 C 214.160461 56.648479 198.380264 59.193905 196 64 C 191.903275 72.271873 201.819397 92.324791 188.824219 92.992188 C 188.643204 93.001488 188.464417 93.003639 188.291016 93 Z M 255.089844 90.439453 C 249.716171 90.46933 242.054153 87.408714 238.900391 84.042969 C 235.333588 80.236412 234.116852 66.683128 234 64.402344 C 233.526154 55.154469 233.710175 45.496861 237.847656 37.515625 C 241.441315 30.583435 247.074951 24.71701 253.841797 22.421875 C 257.636658 21.134758 263.154663 21.964668 267.578125 23.833984 C 273.921387 26.514595 278.748352 29.357857 281.966797 35.884766 C 286.375366 44.825176 278.933624 60.699558 283.441406 70.445313 C 286.618896 77.314987 298.934845 74.517059 297 83 C 295.233521 90.744766 291.543762 89.801331 284 87 C 276.523132 84.223511 275.061188 76.387794 272.644531 68.933594 C 270.136292 61.196903 274.279083 50.440144 271 44 C 268.4534 38.998421 266.813751 33.851219 259 34 C 253.157471 34.111244 250.612091 39.629017 249 43 C 247.10907 46.954041 248.028381 55.815804 248.060547 60.3125 C 248.084625 63.679974 246.982361 71.393677 249 74 C 250.703949 76.201126 255.33783 77.013275 258 77 C 262.250732 76.978806 270.292542 68.576874 272.644531 71.955078 C 277.221466 78.529015 266.122437 87.623688 257.796875 90.085938 C 257.001831 90.321068 256.084961 90.433922 255.089844 90.439453 Z"/>
</svg>
