<?xml version="1.0" encoding="UTF-8"?>
<!-- Generated by Pixelmator Pro 2.4.4 -->
<svg width="228" height="100" viewBox="0 0 228 100" xmlns="http://www.w3.org/2000/svg" xmlns:xlink="http://www.w3.org/1999/xlink">
    <path id="logo" fill="#000000" fill-rule="evenodd" stroke="none" d="M 16.55481 13.077751 L 12.2742 12.036629 L 3.129761 50.596001 L 1.695419 56.613998 L 1.657066 56.813 C -0.075462 65.760101 1.618164 73.993301 6.738388 81.512001 C 11.858795 89.030998 18.8992 93.623299 27.858994 95.289001 C 29.730453 95.636887 39.609085 96.352303 46 94 C 57.559845 89.745171 55.865967 90.086113 65 83 C 68.605988 80.202499 76.717926 68.518265 79 61 C 81.830353 51.675434 84.195602 29.22802 71 16 C 70.187317 15.185326 61.835571 7.205757 50 6 C 45.622452 5.554031 39.399521 7.713882 35 9 C 16.625305 14.37149 37.870926 11.82399 56 26 C 65.151215 33.155785 64.442276 47.259365 62 54 C 58.713181 63.071533 51.75824 71.012054 48 73 C 39.185333 77.66256 32.476135 76.853569 31.218796 76.619797 C 27.456497 75.920601 24.507599 74.002403 22.371597 70.865898 C 20.269104 67.778595 19.553696 64.3909 20.2258 60.702202 L 24.620392 42.2654 L 24.605698 42.261799 L 27.350693 30.687401 C 29.2061 22.863197 24.372604 14.978951 16.55481 13.077751 Z M 221.839996 46.007999 L 209.936005 46.007999 L 209.936005 51.383999 C 207.440002 48.312 203.024002 47.639999 201.104004 47.639999 L 195.919998 47.639999 C 187.279999 47.639999 182.095993 53.784 182.095993 61.175999 L 182.095993 78.552002 C 182.095993 87.767998 188.815994 91.704002 194.192001 91.704002 L 205.615997 91.704002 C 208.688004 91.704002 211.856003 90.167999 214.160004 87.384003 L 216.751999 92.951996 L 228.080002 92.951996 C 223.951996 86.423996 221.839996 79.223999 221.839996 73.751999 Z M 208.016006 77.304001 C 208.016006 81.912003 205.328003 83.543999 201.488007 83.543999 L 198.320007 83.543999 C 193.231995 83.543999 192.751999 79.416 192.751999 77.304001 L 192.751999 61.944 C 192.751999 58.872002 195.248001 55.896 198.320007 55.896 L 200.912003 55.896 C 203.983994 55.896 208.016006 58.007999 208.016006 63.863998 Z M 176.432007 45.911999 C 164.815994 46.200001 157.423996 49.751999 153.584 52.535999 L 153.584 46.104 L 140.432007 46.104 L 140.432007 91.800003 L 153.584 91.800003 L 153.584 64.440002 C 161.455994 58.584 171.151993 58.104 176.432007 58.104 Z M 116.240005 91.800003 C 125.455994 91.800003 131.408005 86.232002 131.408005 78.264 L 131.408005 60.599998 C 131.408005 52.535999 124.112 46.104 113.360001 46.104 L 107.407997 46.104 C 97.903999 46.104 90.031998 52.152 90.031998 60.216 L 90.031998 77.304001 C 90.031998 87.288002 97.232002 91.800003 105.487999 91.800003 Z M 108.559998 83.063995 C 103.087997 83.063995 102.031998 78.360001 102.031998 76.248001 L 102.031998 63.192001 C 102.031998 58.391998 106.064003 56.472 109.519997 56.472 L 112.207993 56.472 C 116.720001 56.472 119.311996 60.023998 119.311996 63.096001 L 119.311996 76.727997 C 119.311996 79.416 117.199997 83.063995 112.880005 83.063995 Z"/>
</svg>
