<?xml version="1.0" encoding="UTF-8"?>
<!-- Generated by Pixelmator Pro 2.4.4 -->
<svg width="300" height="98" viewBox="0 0 300 98" xmlns="http://www.w3.org/2000/svg" xmlns:xlink="http://www.w3.org/1999/xlink">
    <text id="Dora" xml:space="preserve" x="133" y="73" font-family="BM Yeonsung" font-size="84" fill="#000000">Dora</text>
    <g id="Vector">
        <linearGradient id="linearGradient1" x1="55.030269" y1="54.800484" x2="23.921842" y2="85.53779" gradientUnits="userSpaceOnUse">
            <stop offset="0.107589" stop-color="#ff68cf" stop-opacity="1"/>
            <stop offset="0.322614" stop-color="#ea61e6" stop-opacity="1"/>
            <stop offset="0.571583" stop-color="#cc51ff" stop-opacity="1"/>
            <stop offset="1" stop-color="#7936ff" stop-opacity="1"/>
        </linearGradient>
        <path id="path1" fill="url(#linearGradient1)" fill-rule="evenodd" stroke="none" d="M 37.707901 39 C 32.678429 39.329601 25.815506 33.533516 25.55477 28.5 C 25.266785 22.940445 33.387989 19.089211 37.707901 15.577797 C 42.644302 11.565277 48.961109 7.000046 55 5 C 58.290527 3.910194 62.54134 3.769981 66 4 C 69.532295 4.234917 73.737823 5.125038 77 6.5 C 79.927788 7.734024 82.999207 10.040199 85.5 12 C 88.367867 14.247459 91.780281 16.80442 94 20 C 95.960175 22.82193 96.848877 26.262642 98 29.5 C 99.105423 32.608841 100.454201 35.910786 100.780602 39 C 101.127792 42.285957 100.680145 46.266514 100 49.5 C 99.280434 52.920921 97.718422 56.813599 96.280602 60 C 94.877678 63.109077 92.86953 66.647034 91 69.5 C 89.159454 72.308739 86.789803 75.543701 84.5 78 C 82.074242 80.602135 78.895447 83.433167 76 85.5 C 73.674164 87.160233 70.792656 90.91024 68.0839 90 C 65.413094 89.102509 65.653549 84.339043 64.542 81.75 C 63.430447 79.16095 60.315868 76.233261 61 73.5 C 61.487911 71.550682 64.425392 70.748398 66 69.5 C 68.189178 67.764351 71.159386 66.1017 73 64 C 75.641731 60.983543 78.144897 56.773785 79.5 53 C 80.867172 49.192612 81.787537 44.300579 81.5 40.2654 C 81.272125 37.067535 80.089081 33.284431 78.5 30.5 C 76.816208 27.549606 74.315468 23.872238 71.207901 22.5 C 67.045235 20.661858 61.083565 21.250938 56.707901 22.5 C 53.278034 23.47908 49.783409 26.202759 47.054802 28.5 C 43.679993 31.341278 42.110058 38.71151 37.707901 39 Z"/>
        <linearGradient id="linearGradient2" x1="50.4678" y1="67.3414" x2="38.818" y2="12.10698" gradientUnits="userSpaceOnUse">
            <stop offset="0.05016" stop-color="#ff68cf" stop-opacity="1"/>
            <stop offset="0.994774" stop-color="#ff9059" stop-opacity="1"/>
        </linearGradient>
        <path id="path2" fill="url(#linearGradient2)" fill-rule="evenodd" stroke="none" d="M 33.554802 11.077751 L 29.2742 10.036629 L 20.129761 48.596001 L 18.695417 54.613998 L 18.657066 54.813 C 16.92454 63.760101 18.618164 71.993301 23.73839 79.512001 C 28.858801 87.030998 35.8992 91.623299 44.859001 93.289001 C 53.770699 94.945602 60.5779 95.111504 68.0839 90 L 61 73.5 C 57.770802 75.699097 52.0289 75.328201 48.2188 74.619797 C 44.456501 73.920601 41.507603 72.002403 39.371601 68.865898 C 37.2691 65.778595 36.553699 62.3909 37.2258 58.702202 L 41.620399 40.2654 L 41.605701 40.261799 L 44.3507 28.687401 C 46.2061 20.863197 41.372601 12.978951 33.554802 11.077751 Z"/>
    </g>
</svg>
