<?xml version="1.0" encoding="UTF-8"?>
<!-- Generated by Pixelmator Pro 2.4.4 -->
<svg width="300" height="98" viewBox="0 0 300 98" xmlns="http://www.w3.org/2000/svg" xmlns:xlink="http://www.w3.org/1999/xlink">
    <path id="Dora" fill="#000000" fill-rule="evenodd" stroke="none" d="M 285.855988 57.863998 C 283.503998 56.183998 279.052002 54.924 275.776001 54.84 C 263.932007 54.588001 258.891998 61.223999 259.144012 68.028 C 259.395996 74.496002 263.511993 80.375999 275.187988 80.124001 C 281.067993 79.872002 285.940002 76.512001 287.032013 75.167999 C 288.040009 78.108002 289.552002 79.788002 290.980011 80.375999 C 292.071991 80.795998 293.415985 80.879997 294.003998 80.459999 C 294.339996 80.124001 294.256012 79.115997 293.835999 77.436005 C 293.247986 75.335999 293.247986 72.227997 293.247986 70.548004 L 293.247986 52.236 C 293.247986 43.751999 286.612 37.032001 277.455994 37.032001 C 268.384003 37.032001 261.496002 42.071999 262.420013 44.759998 C 262.839996 46.02 264.940002 46.188 268.971985 45.18 C 270.988007 44.675999 273.76001 44.088001 276.532013 44.088001 C 283.420013 44.088001 285.855988 49.548 285.855988 54.251999 Z M 285.940002 68.699997 C 283.420013 70.800003 278.716003 72.732002 275.019989 72.732002 C 269.559998 72.732002 266.787994 71.639999 266.787994 67.272003 C 266.787994 62.82 269.559998 60.551998 275.104004 60.467999 C 278.884003 60.383999 282.832001 61.307999 285.940002 62.400002 Z M 231.759995 67.356003 C 231.759995 75.419998 234.699997 79.956001 236.716003 79.956001 C 238.899994 79.956001 238.899994 71.556 238.899994 64.416 L 238.899994 49.212002 C 240.412003 47.448002 243.268005 45.683998 245.787994 45.683998 C 247.888 45.683998 249.483994 48.792 251.332001 49.043999 C 252.507996 49.212002 253.936005 47.616001 254.356003 46.944 C 254.860001 46.188 254.356003 44.172001 253.936005 43.332001 C 252.759995 40.728001 250.492004 39.048 247.216003 39.048 C 245.283997 39.048 241.587997 40.307999 238.899994 42.66 L 238.899994 40.560001 C 238.899994 39.383999 237.136002 37.452 235.792007 37.200001 C 233.860001 36.863998 231.087997 37.619999 229.660004 38.040001 C 228.904007 38.208 227.223999 38.964001 227.223999 39.720001 C 227.223999 41.82 230.248001 43.080002 231.759995 44.172001 Z M 187.660004 60.216 C 187.660004 71.723999 194.464005 80.040001 205.300003 80.040001 C 216.723999 80.040001 224.451996 69.540001 224.451996 59.375999 C 224.451996 49.548 217.647995 40.223999 207.820007 40.223999 C 195.975998 40.223999 187.660004 49.716 187.660004 60.216 Z M 207.651993 47.448002 C 213.951996 47.448002 217.815994 53.664001 217.815994 58.956001 C 217.815994 65.675995 212.272003 72.732002 205.720001 72.732002 C 199.167999 72.732002 194.716003 66.264 194.716003 60.551998 C 194.716003 53.495998 200.259995 47.448002 207.651993 47.448002 Z M 143.056 55.596001 C 142.972 65.339996 142.384003 70.043999 141.880005 73.992004 C 142.552002 76.260002 143.895996 78.360001 144.567993 78.192001 C 147.171997 77.520004 149.020004 67.692001 149.440002 63.155998 C 149.944 58.116001 150.112 53.916 150.112 47.868 C 150.112 41.903999 150.112 35.855999 149.860001 29.891998 C 151.371994 29.723999 152.884003 29.639999 154.395996 29.639999 C 168.843994 29.639999 173.464005 39.299999 173.464005 50.388 C 173.464005 61.139999 166.072006 68.447998 159.604004 71.136002 C 155.740005 72.984001 151.455994 74.160004 151.455994 76.091995 C 151.455994 76.68 151.876007 77.604004 154.899994 77.604004 C 168.255997 77.604004 182.619995 66.18 182.619995 50.472 C 182.619995 34.344002 172.876007 22.751999 156.496002 22.751999 C 153.472 22.751999 151.203995 23.171997 148.432007 23.844002 C 146.416 22.248001 141.123993 19.896004 139.444 19.559998 C 138.520004 19.391998 137.511993 19.391998 137.511993 21.491997 C 137.511993 24.599998 138.772003 25.524002 139.695999 26.363998 C 140.283997 26.867996 143.056 28.211998 143.056 28.463997 Z"/>
    <g id="Vector-">
        <linearGradient id="linearGradient1" x1="71.201093" y1="64.944478" x2="52.111962" y2="6.144371" gradientUnits="userSpaceOnUse">
            <stop offset="0.05016" stop-color="#ff68cf" stop-opacity="1"/>
            <stop offset="0.994774" stop-color="#ff9059" stop-opacity="1"/>
        </linearGradient>
        <path id="path1" fill="url(#linearGradient1)" fill-rule="evenodd" stroke="none" d="M 33.554802 11.077751 L 29.2742 10.036629 L 20.129761 48.596001 L 18.695417 54.613998 L 18.657066 54.813 C 16.92454 63.760101 18.618164 71.993301 23.73839 79.512001 C 28.858801 87.030998 35.8992 91.623299 44.859001 93.289001 C 46.730457 93.636887 56.609085 94.352303 63 92 C 74.559845 87.745171 72.865974 88.086113 82 81 C 85.605988 78.202499 97.143433 67.865295 99 51 C 101.146652 31.499565 101.19561 27.22802 88 14 C 87.187317 13.185326 78.835579 5.205757 67 4 C 62.622456 3.554031 56.399529 5.713882 52 7 C 33.625298 12.37149 54.870922 9.82399 73 24 C 82.151222 31.155785 81.442284 45.259365 79 52 C 75.713181 61.071533 68.758247 69.012054 65 71 C 56.185341 75.66256 49.476131 74.853569 48.2188 74.619797 C 44.456501 73.920601 41.507603 72.002403 39.371601 68.865898 C 37.2691 65.778595 36.553699 62.3909 37.2258 58.702202 L 41.620399 40.2654 L 41.605701 40.261799 L 44.3507 28.687401 C 46.2061 20.863197 41.372601 12.978951 33.554802 11.077751 Z"/>
    </g>
</svg>
