<?xml version="1.0" encoding="UTF-8"?>
<!-- Generated by Pixelmator Pro 2.4.4 -->
<svg width="100" height="100" viewBox="0 0 100 100" xmlns="http://www.w3.org/2000/svg" xmlns:xlink="http://www.w3.org/1999/xlink">
    <path id="logo" fill="#000000" fill-rule="evenodd" stroke="none" d="M 25.55481 13.077751 L 21.2742 12.036629 L 12.129761 50.596001 L 10.695419 56.613998 L 10.657066 56.813 C 8.924538 65.760101 10.618164 73.993301 15.738388 81.512001 C 20.858795 89.030998 27.8992 93.623299 36.858994 95.289001 C 38.730453 95.636887 48.609085 96.352303 55 94 C 66.559845 89.745171 64.865967 90.086113 74 83 C 77.605988 80.202499 85.717926 68.518265 88 61 C 90.830353 51.675434 93.195602 29.22802 80 16 C 79.187317 15.185326 70.835571 7.205757 59 6 C 54.622452 5.554031 48.399521 7.713882 44 9 C 25.625305 14.37149 46.870926 11.82399 65 26 C 74.151215 33.155785 73.442276 47.259365 71 54 C 67.713181 63.071533 60.75824 71.012054 57 73 C 48.185333 77.66256 41.476135 76.853569 40.218796 76.619797 C 36.456497 75.920601 33.507599 74.002403 31.371597 70.865898 C 29.269104 67.778595 28.553696 64.3909 29.2258 60.702202 L 33.620392 42.2654 L 33.605698 42.261799 L 36.350693 30.687401 C 38.2061 22.863197 33.372604 14.978951 25.55481 13.077751 Z"/>
</svg>
