<?xml version="1.0" encoding="UTF-8"?>
<!-- Generated by Pixelmator Pro 2.4.4 -->
<svg width="400" height="100" viewBox="0 0 400 100" xmlns="http://www.w3.org/2000/svg" xmlns:xlink="http://www.w3.org/1999/xlink">
    <path id="logo" fill="#000000" fill-rule="evenodd" stroke="none" d="M 86.951172 95.669922 C 84.029747 95.664696 81.678139 95.441261 80.859375 95.289063 C 71.899597 93.62336 64.858673 89.030701 59.738281 81.511719 C 54.618065 73.993034 52.923721 65.759583 54.65625 56.8125 L 54.695313 56.613281 L 56.128906 50.595703 L 65.273438 12.037109 L 69.554688 13.078125 C 77.372467 14.979324 82.20697 22.863312 80.351563 30.6875 L 77.605469 42.261719 L 77.621094 42.265625 L 73.226563 60.703125 C 72.554459 64.391815 73.2686 67.777939 75.371094 70.865234 C 77.507095 74.001732 80.456451 75.919945 84.21875 76.619141 C 85.476089 76.852913 92.185349 77.662552 101 73 C 104.75824 71.012054 111.713181 63.071518 115 54 C 117.442276 47.25938 118.151199 33.155769 109 26 C 90.870956 11.82402 69.625336 14.371475 88 9 C 92.399506 7.713882 98.622467 5.554031 103 6 C 114.835541 7.205757 123.187317 15.185326 124 16 C 137.195572 29.227989 134.830353 51.675449 132 61 C 129.717926 68.51825 121.605988 80.202507 118 83 C 108.865982 90.086098 110.559814 89.745178 99 94 C 95.405113 95.323166 90.707283 95.676643 86.951172 95.669922 Z M 181.615234 93.066406 C 178.708359 93.033005 175.291824 92.564514 172.416016 91.681641 C 165.551178 89.574142 163.115417 88.19516 158.115234 83.400391 C 154.389694 79.827896 148.794159 72.985886 147.578125 66.841797 C 145.708267 57.394249 145.762573 42.864231 153.599609 32.970703 C 159.562805 25.442741 168.645248 22.928085 176.71875 23.007813 C 180.697617 23.047104 190.196701 25.128212 190.271484 29.167969 C 190.474564 40.137913 173.208069 32.145561 165.628906 41.488281 C 160.721481 47.537594 159.185806 55.383369 160.373047 61.572266 C 161.600952 67.973061 166.955536 73.315964 170.912109 75.875 C 175.722504 78.986275 180.768829 79.110413 183.542969 78.599609 C 186.248734 78.101395 188.534439 76.443039 190.201172 74.267578 C 192.679077 71.033371 196.529602 61.642796 196.431641 55.041016 C 196.348587 49.443726 188.225021 39.55175 190.271484 37.792969 C 194.718002 33.971535 202.581604 40.71965 206.289063 46.417969 C 208.01532 49.07119 208.167633 55.840446 207.519531 62.433594 C 206.761597 70.144142 204.717422 78.533257 201.96875 82.28125 C 198.090347 87.569717 192.426132 91.004089 186.072266 92.650391 C 184.920853 92.948723 183.35936 93.086449 181.615234 93.066406 Z M 238.291016 93 C 227.366653 92.770836 231.370178 67.162003 226.132813 52.390625 C 223.696594 45.519604 217.681549 37.095634 218.613281 33.484375 C 219.868988 28.617462 225.469849 19.852547 232.605469 22 C 239.754822 24.151588 235.645096 49.712524 241.933594 52.275391 C 252.432312 56.554142 268.479706 26.900963 274.580078 34.527344 C 282.922638 44.956825 247.896179 61.123264 243.488281 70.023438 C 239.391556 78.295311 251.819397 92.324791 238.824219 92.992188 C 238.643204 93.001488 238.464417 93.003639 238.291016 93 Z M 305.089844 90.439453 C 299.716187 90.46933 292.054138 87.408714 288.900391 84.042969 C 285.333588 80.236412 284.116852 66.683128 284 64.402344 C 283.526154 55.154469 283.710175 45.496861 287.847656 37.515625 C 291.441315 30.583435 297.074951 24.71701 303.841797 22.421875 C 307.636658 21.134758 313.154663 21.964668 317.578125 23.833984 C 323.921387 26.514595 328.748352 29.357857 331.966797 35.884766 C 336.375366 44.825176 328.933624 60.699558 333.441406 70.445313 C 336.618896 77.314987 348.934845 74.517059 347 83 C 345.233521 90.744766 341.543762 89.801331 334 87 C 326.523132 84.223511 325.061188 76.387794 322.644531 68.933594 C 320.136292 61.196903 324.279083 50.440144 321 44 C 318.4534 38.998421 316.813751 33.851219 309 34 C 303.157471 34.111244 300.612091 39.629017 299 43 C 297.10907 46.954041 298.028381 55.815804 298.060547 60.3125 C 298.084625 63.679974 296.982361 71.393677 299 74 C 300.703949 76.201126 305.33783 77.013275 308 77 C 312.250732 76.978806 320.292542 68.576874 322.644531 71.955078 C 327.221466 78.529015 316.122437 87.623688 307.796875 90.085938 C 307.001831 90.321068 306.084961 90.433922 305.089844 90.439453 Z"/>
</svg>
